<svg width="283" height="95" viewBox="0 0 283 95" fill="none" xmlns="http://www.w3.org/2000/svg">
<path d="M173.7 0.0923462H159.644C155.995 0.0923462 153.038 3.0578 153.038 6.71712V42.0292L152.993 41.9672V42.037L180.308 79.611V6.71906C180.306 3.05973 177.349 0.0923462 173.7 0.0923462Z" fill="#7F1EEB"/>
<path d="M98.4947 87.6081C98.4947 91.2674 101.452 94.2328 105.101 94.2328H119.157C122.806 94.2328 125.763 91.2674 125.763 87.6081V52.325L98.4928 14.813V87.6081H98.4947Z" fill="#DE78FF"/>
<path d="M152.991 89.6877L154.112 91.2266C155.332 93.1028 157.414 94.2328 159.646 94.2328H173.698C177.347 94.2328 180.304 91.2673 180.304 87.608V79.6129L152.989 42.0389V89.6858L152.991 89.6877Z" fill="#0000AA"/>
<path d="M125.81 4.64902L124.238 2.48792C124.238 2.48792 124.236 2.48404 124.234 2.48404C124.172 2.40845 124.107 2.3348 124.041 2.26309C124.02 2.23983 124 2.21657 123.979 2.19525C123.917 2.12935 123.854 2.06539 123.79 2.00143C123.763 1.9743 123.736 1.9491 123.709 1.92196C123.647 1.86188 123.581 1.80373 123.517 1.74753C123.486 1.72039 123.455 1.69326 123.424 1.66806C123.361 1.61379 123.295 1.55952 123.227 1.50719C123.194 1.48199 123.162 1.45679 123.129 1.4316C123.061 1.3812 122.993 1.33081 122.926 1.28236C122.893 1.2591 122.858 1.23584 122.823 1.21452C122.752 1.168 122.682 1.11955 122.611 1.07497C122.582 1.05753 122.553 1.04202 122.524 1.02458C122.363 0.929604 122.199 0.840446 122.029 0.759042C122.008 0.749351 121.988 0.737722 121.967 0.728031C121.905 0.698958 121.841 0.671823 121.778 0.644688C121.724 0.621429 121.667 0.596233 121.613 0.572974C121.553 0.549716 121.494 0.528396 121.434 0.505137C121.372 0.481879 121.312 0.460559 121.25 0.439238C121.192 0.419856 121.132 0.402413 121.074 0.383031C121.008 0.363648 120.943 0.344266 120.877 0.324884C120.819 0.309379 120.763 0.293873 120.705 0.280306C120.635 0.262862 120.564 0.247356 120.494 0.233789C120.438 0.22216 120.384 0.21053 120.328 0.200839C120.253 0.187272 120.177 0.175643 120.1 0.164014C120.048 0.156261 119.996 0.148508 119.943 0.142693C119.858 0.133002 119.771 0.12525 119.684 0.117497C119.64 0.11362 119.597 0.109744 119.553 0.105867C119.421 0.0981147 119.29 0.0942383 119.159 0.0942383H105.103C101.454 0.0942383 98.4965 3.05969 98.4965 6.71902V14.813L125.767 52.3249V52.2939L125.811 52.3559L152.993 89.6877V42.0408L125.81 4.64902Z" fill="#002BC7"/>
<path d="M235.196 66.501L209.382 92.3838C206.914 94.8589 202.917 94.8589 200.451 92.3838L190.1 82.0047C187.634 79.5315 187.634 75.5233 190.1 73.0483L215.913 47.1655L235.196 66.501Z" fill="#006CFF"/>
<path d="M280.274 21.2982L254.478 47.1655L235.196 27.83L260.991 1.96272C263.458 -0.510422 267.457 -0.510422 269.923 1.96272L280.274 12.3418C282.74 14.8149 282.74 18.8251 280.274 21.2982Z" fill="#006CFF"/>
<path d="M235.197 27.8311L215.915 47.1664L235.197 66.5016L254.478 47.1664L235.197 27.8311Z" fill="#002BC7"/>
<path d="M235.195 27.83L215.913 47.1655L190.11 21.2905C187.643 18.8173 187.643 14.8091 190.11 12.336L200.46 1.95497C202.926 -0.518174 206.926 -0.518174 209.392 1.95497L235.195 27.83Z" fill="#1CB8FF"/>
<path d="M280.281 81.995L269.929 92.3741C267.462 94.8472 263.465 94.8472 260.999 92.3741L235.197 66.501L254.479 47.1655L280.281 73.0386C282.747 75.5117 282.747 79.5219 280.281 81.995Z" fill="#1CB8FF"/>
<path fill-rule="evenodd" clip-rule="evenodd" d="M84.6882 36.5383H67.6269C65.7694 36.5383 64.0144 35.7107 62.8102 34.2939C59.1765 30.0143 53.7626 27.3008 47.7205 27.3008C37.2695 27.3008 28.707 35.4142 27.9609 45.7041C27.2323 38.839 21.4414 33.4953 14.4039 33.4953C7.36643 33.4953 1.01895 39.3662 0.777344 46.7061C1.02475 20.9183 21.9459 0.0923462 47.7185 0.0923462C66.6914 0.0923462 83.0375 11.3804 90.4403 27.6226C92.3422 31.7955 89.2613 36.5383 84.6882 36.5383Z" fill="#1CB8FF"/>
<path fill-rule="evenodd" clip-rule="evenodd" d="M84.6225 57.9399C89.2053 57.9399 92.2882 62.6982 90.3689 66.8712C82.9332 83.0299 66.6316 94.2444 47.7186 94.2444C21.946 94.2444 1.02483 73.4184 0.777425 47.6326C0.77356 47.4794 0.77356 47.3224 0.77356 47.1693C0.77356 47.0162 0.77356 46.8592 0.777425 46.7061C1.01903 39.3681 7.02826 33.4953 14.4021 33.4953C21.7759 33.4953 27.2304 38.8389 27.9591 45.704C27.9224 46.1886 27.905 46.677 27.905 47.1693C27.905 47.6616 27.9224 48.152 27.9591 48.6346C28.7052 58.9226 37.2677 67.0378 47.7186 67.0378C53.7143 67.0378 59.0857 64.3689 62.7195 60.1495C63.9236 58.752 65.6651 57.9399 67.5071 57.9399H84.6225Z" fill="#002BC7"/>
</svg>
